<svg width="26" height="26" viewBox="0 0 26 26" fill="none" xmlns="http://www.w3.org/2000/svg">
<g id="Group">
<path id="Vector" d="M24.25 7.1713H19.3375L19.8025 1.8313C19.8475 1.3163 19.465 0.862554 18.95 0.816304C18.4288 0.778804 17.98 1.1538 17.935 1.67005L17.4562 7.17005H9.55625L10.0187 1.83255C10.065 1.3163 9.68125 0.862554 9.16875 0.816304C8.64375 0.778804 8.1975 1.1538 8.1525 1.67005L7.675 7.17005H2.7275C2.21 7.17005 1.79 7.5913 1.79 8.10755C1.79 8.6238 2.21 9.04505 2.7275 9.04505H7.5125L6.825 16.9538H1.75C1.2325 16.9538 0.8125 17.3738 0.8125 17.8913C0.8125 18.4088 1.2325 18.8288 1.75 18.8288H6.6625L6.1975 24.1688C6.1525 24.6838 6.535 25.1376 7.05 25.1838L7.1325 25.1876C7.61375 25.1876 8.0225 24.8188 8.065 24.3301L8.54375 18.8301H16.4438L15.9813 24.1676C15.9363 24.6838 16.3188 25.1376 16.8337 25.1838L16.9163 25.1876C17.3975 25.1876 17.8062 24.8188 17.8487 24.3301L18.3263 18.8301H23.2725C23.7887 18.8301 24.21 18.4088 24.21 17.8926C24.21 17.3763 23.7887 16.9551 23.2725 16.9551H18.4875L19.175 9.0463H24.25C24.7675 9.0463 25.1875 8.6263 25.1875 8.1088C25.1875 7.5913 24.7675 7.1713 24.25 7.1713ZM16.6063 16.9538H8.70625L9.39375 9.0463H17.2938L16.6063 16.9538Z" fill="#0F1419"/>
</g>
</svg>
