<svg width="26" height="24" viewBox="0 0 26 24" fill="none" xmlns="http://www.w3.org/2000/svg">
<g id="Group">
<path id="Vector" d="M22.0625 0.772461H3.9375C2.04125 0.772461 0.5 2.31496 0.5 4.21246V19.8312C0.5 21.7287 2.04125 23.2725 3.9375 23.2725H22.0625C23.9587 23.2725 25.5 21.7287 25.5 19.8312V4.21246C25.5 2.31496 23.9587 0.772461 22.0625 0.772461ZM3.9375 2.64746H22.0625C22.925 2.64746 23.625 3.34746 23.625 4.20996V5.10246L13.5625 11.8112C13.2212 12.0362 12.78 12.0387 12.4375 11.8087L2.375 5.10246V4.20996C2.375 3.34746 3.075 2.64746 3.9375 2.64746ZM22.0625 21.395H3.9375C3.075 21.395 2.375 20.695 2.375 19.8325V7.29996L11.425 13.3375C11.9037 13.6575 12.4525 13.8175 13 13.8175C13.55 13.8175 14.0963 13.6575 14.575 13.3387L23.625 7.30121V19.8287C23.625 20.6912 22.925 21.3912 22.0625 21.3912V21.395Z" fill="#0F1419"/>
</g>
</svg>
