<svg width="22" height="26" viewBox="0 0 22 26" fill="none" xmlns="http://www.w3.org/2000/svg">
<g id="Group">
<path id="Vector" d="M11 12.7699C12.6938 12.7699 14.59 12.5824 15.8 11.1999C16.8175 10.0374 17.1475 8.23995 16.8075 5.70995C16.3325 2.1787 14.1613 0.0699463 11 0.0699463C7.83875 0.0699463 5.6675 2.1787 5.1925 5.71245C4.8525 8.23995 5.1825 10.0374 6.2 11.1999C7.41 12.5837 9.30625 12.7699 11 12.7699ZM7.05 5.95995C7.2525 4.45995 8.03375 1.94495 11 1.94495C13.9663 1.94495 14.7475 4.4612 14.95 5.95995C15.2088 7.89745 15.0213 9.2437 14.3875 9.9662C13.8188 10.6162 12.805 10.8949 11 10.8949C9.195 10.8949 8.18125 10.6162 7.6125 9.9662C6.97875 9.2437 6.79125 7.8962 7.05 5.95995ZM21.35 22.0449C20.2538 17.6374 15.9975 14.5574 11 14.5574C6.0025 14.5574 1.74625 17.6374 0.650004 22.0449C0.435004 22.9099 0.615003 23.7949 1.14375 24.4699C1.65375 25.1199 2.44375 25.4949 3.31 25.4949H18.69C19.5563 25.4949 20.3463 25.1199 20.8563 24.4699C21.3863 23.7949 21.565 22.9112 21.3488 22.0449H21.35ZM19.38 23.3149C19.2225 23.5149 18.985 23.6224 18.69 23.6224H3.31C3.01625 23.6224 2.7775 23.5162 2.62 23.3149C2.44875 23.0974 2.395 22.7999 2.47 22.4974C3.3575 18.9287 6.86625 16.4349 11 16.4349C15.1338 16.4349 18.6425 18.9274 19.53 22.4974C19.605 22.7999 19.5513 23.0974 19.38 23.3149Z" fill="#0F1419"/>
</g>
</svg>
